Coordinates
version=1
nRows=8
nColumns=46
inDegrees=yes

Units are S.I. units (second, meters, Newtons, ...)
Angles are in degrees.

endheader
time	pelvis_tilt	pelvis_list	pelvis_rotation	pelvis_tx	pelvis_ty	pelvis_tz	bb_angle	bb_tx	bb_ty	bb_tz	hip_flexion_r	hip_adduction_r	hip_rotation_r	knee_angle_r	knee_angle_r_beta	ankle_angle_r	subtalar_angle_r	mtp_angle_r	crank_angle_r	hip_flexion_l	hip_adduction_l	hip_rotation_l	knee_angle_l	knee_angle_l_beta	ankle_angle_l	subtalar_angle_l	mtp_angle_l	crank_angle_l	lumbar_extension	lumbar_bending	lumbar_rotation	arm_flex_r	arm_add_r	arm_rot_r	elbow_flex_r	pro_sup_r	wrist_flex_r	wrist_dev_r	arm_flex_l	arm_add_l	arm_rot_l	elbow_flex_l	pro_sup_l	wrist_flex_l	wrist_dev_l
      5.00500000	    -20.89363598	     -4.03146648	     -3.11021273	      0.16271110	      1.05838117	     -0.21456802	      0.00000000	      0.50000000	      0.00000000	      0.25000000	     80.10070508	      2.28303570	      1.18806705	     79.64988814	      1.39015280	      7.44176596	    -12.86082346	      0.00000000	      0.00000000	     55.40396804	    -10.68763222	     -0.35672503	     73.39999331	      1.28107155	    -22.27113674	    -19.90462494	      0.00000000	      0.00000000	    -54.86111228	      1.84090537	      0.65067535	     86.98710724	     -6.26147075	     30.12988977	     53.82761873	     41.78005905	      0.00000000	      0.00000000	     81.98219002	    -21.34920659	     23.22465587	     61.18648062	     48.62116855	      0.00000000	      0.00000000
      5.01000000	    -20.96258451	     -3.61011912	     -2.78758764	      0.16364413	      1.05667758	     -0.21430884	      0.00000000	      0.50000000	      0.00000000	      0.25000000	     78.67038009	      1.92358433	      1.36533400	     77.06693275	      1.34507172	      6.95050777	    -13.61809766	      0.00000000	      0.00000000	     56.63672397	    -10.23156930	     -0.07035576	     76.20164422	      1.32996959	    -20.91712931	    -18.99572895	      0.00000000	      0.00000000	    -54.79516186	      1.65554707	      0.36997933	     86.48882343	     -6.68628831	     29.41386657	     54.94012952	     42.05008296	      0.00000000	      0.00000000	     81.51611810	    -21.01159264	     22.68748298	     62.31884151	     48.76516831	      0.00000000	      0.00000000
      5.01500000	    -20.85030333	     -2.79074277	     -2.40917714	      0.16470809	      1.05542110	     -0.21403428	      0.00000000	      0.50000000	      0.00000000	      0.25000000	     77.12896717	      1.28793589	      1.87148777	     74.69793411	      1.30372489	      6.77393458	    -13.61742879	      0.00000000	      0.00000000	     57.55782516	     -9.42684241	     -0.19567004	     78.73948404	      1.37426325	    -20.42994591	    -19.20365667	      0.00000000	      0.00000000	    -54.80961936	      1.18576762	     -0.43926645	     86.25896594	     -6.89824416	     29.28132383	     55.06341479	     42.08976744	      0.00000000	      0.00000000	     81.51735955	    -20.74384757	     22.65311585	     62.53157874	     48.79666694	      0.00000000	      0.00000000
      5.02000000	    -20.84979134	     -2.11900241	     -2.14414176	      0.16575956	      1.05389145	     -0.21353460	      0.00000000	      0.50000000	      0.00000000	      0.25000000	     75.70748236	      0.77522977	      2.17239944	     72.29220045	      1.26173692	      6.08117159	    -14.05079820	      0.00000000	      0.00000000	     58.69691985	     -8.88097256	     -0.20787646	     81.36824646	      1.42014381	    -19.48947907	    -18.49859016	      0.00000000	      0.00000000	    -54.78356176	      0.76939325	     -0.96461256	     85.85362249	     -7.28300313	     28.86570892	     56.00831848	     42.35543728	      0.00000000	      0.00000000	     81.24580836	    -20.39347384	     22.15375878	     63.24457905	     48.87050969	      0.00000000	      0.00000000
      5.02500000	    -20.76751643	     -1.24406007	     -1.87982879	      0.16691747	      1.05264970	     -0.21311070	      0.00000000	      0.50000000	      0.00000000	      0.25000000	     74.26708477	      0.05891278	      2.57865331	     70.05703060	      1.22272585	      5.80189655	    -13.81686633	      0.00000000	      0.00000000	     59.71250029	     -8.18940173	     -0.49119399	     83.83259980	      1.46315489	    -19.35073800	    -18.59549624	      0.00000000	      0.00000000	    -54.78833253	      0.23188128	     -1.69210431	     85.76034349	     -7.44376714	     28.80364898	     56.07533107	     42.37506702	      0.00000000	      0.00000000	     81.13891352	    -20.18622575	     22.19238729	     63.30238561	     48.88520322	      0.00000000	      0.00000000
      5.03000000	    -20.85235941	     -0.46883514	     -1.69441454	      0.16754591	      1.05108166	     -0.21264789	      0.00000000	      0.50000000	      0.00000000	      0.25000000	     73.04395337	     -0.55429659	      2.87220221	     67.74215778	      1.18232370	      4.76547212	    -13.91323263	      0.00000000	      0.00000000	     60.99427206	     -7.56823445	     -0.56145120	     86.34334211	      1.50697561	    -18.42402375	    -17.97122939	      0.00000000	      0.00000000	    -54.66038530	     -0.24828247	     -2.33842816	     85.44363084	     -7.74471048	     28.74201752	     56.91255165	     42.62377740	      0.00000000	      0.00000000	     81.16064518	    -19.96501351	     21.67234835	     63.75940843	     48.90289881	      0.00000000	      0.00000000
      5.03500000	    -20.89005381	      0.30003939	     -1.49425477	      0.16884618	      1.05011728	     -0.21194124	      0.00000000	      0.50000000	      0.00000000	      0.25000000	     71.68614391	     -1.24084543	      3.05971032	     65.45753996	      1.14244959	      4.07371111	    -13.43837742	      0.00000000	      0.00000000	     62.15178548	     -7.10111896	     -0.86287624	     88.64351419	      1.54712118	    -18.08200588	    -17.95069622	      0.00000000	      0.00000000	    -54.61866156	     -0.79838395	     -2.99513667	     85.21821557	     -7.90988618	     28.72641225	     57.07142751	     42.68052032	      0.00000000	      0.00000000	     81.11758154	    -19.79364562	     21.57960891	     63.86831362	     48.90793485	      0.00000000	      0.00000000
      5.04000000	    -20.91061314	      1.09646156	     -1.29246137	      0.16981525	      1.04900449	     -0.21121064	      0.00000000	      0.50000000	      0.00000000	      0.25000000	     70.36870162	     -1.96179315	      3.27139971	     63.28087481	      1.10445962	      3.31606264	    -12.95205801	      0.00000000	      0.00000000	     63.36349194	     -6.61816894	     -1.13025803	     90.95926626	      1.58753868	    -17.57809307	    -17.89402510	      0.00000000	      0.00000000	    -54.51260028	     -1.36158943	     -3.69722796	     85.03449855	     -8.04113718	     28.69308092	     57.26315411	     42.73472720	      0.00000000	      0.00000000	     81.01122934	    -19.66412374	     21.45693970	     63.93666985	     48.89762959	      0.00000000	      0.00000000
